<?xml version="1.0" standalone="no"?><!DOCTYPE svg PUBLIC "-//W3C//DTD SVG 1.1//EN" "http://www.w3.org/Graphics/SVG/1.1/DTD/svg11.dtd"><svg t="1675955790146" class="icon" viewBox="0 0 1024 1024" version="1.1" xmlns="http://www.w3.org/2000/svg" p-id="991" xmlns:xlink="http://www.w3.org/1999/xlink" width="16" height="16"><path d="M784 112H240a128 128 0 0 0-128 128v544a128 128 0 0 0 128 128h544a128 128 0 0 0 128-128V240a128 128 0 0 0-128-128z m-544 80h544a48 48 0 0 1 48 48v40.16H192V240a48 48 0 0 1 48-48z m544 640H240a48 48 0 0 1-48-48V360.16h640V784a48 48 0 0 1-48 48z" p-id="992"></path><path d="M726.72 550.4h-45.92v-36.16a40 40 0 0 0-80 0v36.16h-110.08a120.48 120.48 0 1 0 0 80h236a40 40 0 0 0 0-80z m-349.76 80a40.64 40.64 0 1 1 40.64-40 40.64 40.64 0 0 1-40.64 40.48z" p-id="993"></path></svg>