<?xml version="1.0" standalone="no"?><!DOCTYPE svg PUBLIC "-//W3C//DTD SVG 1.1//EN" "http://www.w3.org/Graphics/SVG/1.1/DTD/svg11.dtd"><svg t="1675955941590" class="icon" viewBox="0 0 1024 1024" version="1.1" xmlns="http://www.w3.org/2000/svg" p-id="2185" xmlns:xlink="http://www.w3.org/1999/xlink" width="16" height="16"><path d="M512 253.6m32 0l195.84 0q32 0 32 32l0 72.96q0 32-32 32l-195.84 0q-32 0-32-32l0-72.96q0-32 32-32Z" p-id="2186"></path><path d="M252.16 441.76m32 0l371.84 0q32 0 32 32l0 72.96q0 32-32 32l-371.84 0q-32 0-32-32l0-72.96q0-32 32-32Z" p-id="2187"></path><path d="M360 630.08m32 0l347.68 0q32 0 32 32l0 72.96q0 32-32 32l-347.68 0q-32 0-32-32l0-72.96q0-32 32-32Z" p-id="2188"></path><path d="M784 112H240a128 128 0 0 0-128 128v544a128 128 0 0 0 128 128h544a128 128 0 0 0 128-128V240a128 128 0 0 0-128-128z m48 672a48 48 0 0 1-48 48H240a48 48 0 0 1-48-48V240a48 48 0 0 1 48-48h544a48 48 0 0 1 48 48z" p-id="2189"></path></svg>